{"title":"The Terrorists (Thunska Pansittivorakul, 2011)","uid":8105836,"size":1636581741,"categoryP":"video","categoryS":"movies","magnet":"?xt=urn:btih:867f42095e7cc9c689caeb92bc1f78b744109318&amp;dn=The+Terrorists+%28Thunska+Pansittivorakul%2C+2011%29&amp;tr=udp%3A%2F%2Ftracker.openbittorrent.com%3A80&amp;tr=udp%3A%2F%2Fopen.demonii.com%3A1337&amp;tr=udp%3A%2F%2Ftracker.coppersurfer.tk%3A6969&amp;tr=udp%3A%2F%2Fexodus.desync.com%3A6969","seeders":1,"leechers":0,"uploader":"tonioferah","files":1,"time":1360079896,"description":"The movie is divided into seventeen unrelated segments and is a mixture of both documentary and experimental film genres. By inhabiting the lives of laymen from different parts of Thailand, the movie brings us through blurry trails, distorted memories and recently constructed histories. We unearth missing pieces of the puzzle in our attempt to understand why Thai democracy is still considered backwards and frozen. Are we deceiving ourselves that we are in a democratic society when we are not? The movie begins on a fishing boat, as we observe two boys conversing in an indecipherable tongue. It moves on to contemplate the light penetrating the sea and observe small lives swimming under the surface overlapped with a human body victimized by an unseen person. Beneath the darkness of a rubber farm, only faint light from the lamps illuminates the way. The truth from our present is superimposed with the blood-thirst from the past. The past is erased from the page of Thai history, and what is left is only the accusation that they are the terrorists.\n\n\n_____________________________________________\n\n\n\nGeneral\nComplete name                    : D:The Terrorists (Thunska Pansittivorakul, 2011).mkv\nFormat                           : Matroska\nFile size                        : 1.52 GiB\nDuration                         : 1h 44mn\nOverall bit rate                 : 2 096 Kbps\nWriting application              : HandBrake 0.9.8\nWriting library                  : libmkv 0.6.5\n\nVideo\nID                               : 1\nFormat                           : AVC\nFormat/Info                      : Advanced Video Codec\nFormat profile                   : &lt;a class=&quot;__cf_email__&quot; href=&quot;/cdn-cgi/l/email-protection&quot; data-cfemail=&quot;8dc5e4eae5cdc1bea3bc&quot;&gt;[email&amp;#160;protected]&lt;/a&gt;&lt;script cf-hash='f9e31' type=&quot;text/javascript&quot;&gt;\n/* &lt;![CDATA[ */!function(){try{var t=&quot;currentScript&quot;in document?document.currentScript:function(){for(var t=document.getElementsByTagName(&quot;script&quot;),e=t.length;e--;)if(t[e].getAttribute(&quot;cf-hash&quot;))return t[e]}();if(t&amp;&amp;t.previousSibling){var e,r,n,i,c=t.previousSibling,a=c.getAttribute(&quot;data-cfemail&quot;);if(a){for(e=&quot;&quot;,r=parseInt(a.substr(0,2),16),n=2;a.length-n;n+=2)i=parseInt(a.substr(n,2),16)^r,e+=String.fromCharCode(i);e=document.createTextNode(e),c.parentNode.replaceChild(e,c)}}}catch(u){}}();/* ]]&gt; */&lt;/script&gt;\nFormat settings, CABAC           : Yes\nFormat settings, ReFrames        : 11 frames\nCodec ID                         : V_MPEG4/ISO/AVC\nDuration                         : 1h 44mn\nBit rate                         : 1 900 Kbps\nWidth                            : 720 pixels\nHeight                           : 576 pixels\nDisplay aspect ratio             : 16:9\nFrame rate                       : 25.000 fps\nStandard                         : PAL\nColor space                      : YUV\nChroma subsampling               : 4:2:0\nBit depth                        : 8 bits\nScan type                        : Progressive\nBits/(Pixel*Frame)               : 0.183\nStream size                      : 1.33 GiB (87%)\nWriting library                  : x264 core 120\n\nAudio\nID                               : 2\nFormat                           : AC-3\nFormat/Info                      : Audio Coding 3\nMode extension                   : ME (music and effects)\nCodec ID                         : A_AC3\nDuration                         : 1h 44mn\nBit rate mode                    : Constant\nBit rate                         : 224 Kbps\nChannel(s)                       : 3 channels\nChannel positions                : Front: L R,   Side: C\nSampling rate                    : 48.0 KHz\nBit depth                        : 16 bits\nCompression mode                 : Lossy\nStream size                      : 167 MiB (11%)\nLanguage                         : Thai\n\nText\nID                               : 3\nFormat                           : VobSub\nCodec ID                         : S_VOBSUB\nCodec ID/Info                    : The same subtitle format used on DVDs\nLanguage                         : English","torrent":{"xt":"urn:btih:867f42095e7cc9c689caeb92bc1f78b744109318","amp;dn":"The+Terrorists+%28Thunska+Pansittivorakul%2C+2011%29","amp;tr":["udp%3A%2F%2Ftracker.openbittorrent.com%3A80","udp%3A%2F%2Fopen.demonii.com%3A1337","udp%3A%2F%2Ftracker.coppersurfer.tk%3A6969","udp%3A%2F%2Fexodus.desync.com%3A6969"],"infoHash":"867f42095e7cc9c689caeb92bc1f78b744109318","infoHashBuffer":{"type":"Buffer","data":[134,127,66,9,94,124,201,198,137,202,235,146,188,31,120,183,68,16,147,24]},"announce":[],"urlList":[]}}